<svg fill="none" xmlns="http://www.w3.org/2000/svg">
<path d="M230.012 47.52C230.492 47.424 230.852 47.328 231.092 47.232V16.416C231.092 14.64 230.084 13.752 228.068 13.752C227.492 13.752 226.94 13.824 226.412 13.968C225.932 14.064 225.572 14.16 225.332 14.256V45.144C225.332 46.872 226.364 47.736 228.428 47.736C229.004 47.736 229.532 47.664 230.012 47.52Z" fill="#007AFF"/>
<path d="M225.476 1.08C224.804 1.752 224.468 2.592 224.468 3.6C224.468 4.608 224.804 5.472 225.476 6.192C226.196 6.864 227.108 7.2 228.212 7.2C229.316 7.2 230.204 6.864 230.876 6.192C231.548 5.472 231.884 4.608 231.884 3.6C231.884 2.592 231.548 1.752 230.876 1.08C230.204 0.360001 229.316 0 228.212 0C227.108 0 226.196 0.360001 225.476 1.08Z" fill="#007AFF"/>
<path fill-rule="evenodd" clip-rule="evenodd" d="M202.73 44.136C203.162 43.608 203.378 42.864 203.378 41.904V2.808C203.378 1.08 202.346 0.216002 200.282 0.216002C199.754 0.216002 199.226 0.288002 198.698 0.432003C198.218 0.528002 197.858 0.624002 197.618 0.720004V15.192C196.562 14.616 195.314 14.136 193.874 13.752C192.434 13.368 190.946 13.176 189.41 13.176C187.154 13.176 185.018 13.512 183.002 14.184C181.034 14.856 179.306 15.912 177.818 17.352C176.378 18.792 175.226 20.64 174.362 22.896C173.498 25.104 173.066 27.768 173.066 30.888C173.066 33.96 173.474 36.6 174.29 38.808C175.154 40.968 176.354 42.768 177.89 44.208C179.474 45.6 181.346 46.632 183.506 47.304C185.666 47.976 188.042 48.312 190.634 48.312C192.938 48.312 194.978 48.024 196.754 47.448C198.53 46.92 199.898 46.344 200.858 45.72C201.722 45.192 202.346 44.664 202.73 44.136ZM194.306 18.648C195.554 19.128 196.658 19.704 197.618 20.376V41.688C196.754 42.216 195.77 42.672 194.666 43.056C193.61 43.392 192.242 43.56 190.562 43.56C187.058 43.56 184.25 42.576 182.138 40.608C180.026 38.64 178.97 35.448 178.97 31.032C178.97 28.632 179.258 26.592 179.834 24.912C180.458 23.232 181.274 21.888 182.282 20.88C183.29 19.824 184.442 19.08 185.738 18.648C187.082 18.168 188.498 17.928 189.986 17.928C191.618 17.928 193.058 18.168 194.306 18.648Z" fill="#007AFF"/>
<path d="M92.2208 22.608C91.5488 24.864 90.8528 27.144 90.1328 29.448C89.4608 31.752 88.7648 33.96 88.0448 36.072C87.3248 38.184 86.6288 40.176 85.9568 42.048C85.2848 43.92 84.6608 45.576 84.0848 47.016C83.7008 47.256 83.2688 47.448 82.7888 47.592C82.3088 47.736 81.6608 47.808 80.8448 47.808C80.0768 47.808 79.3568 47.664 78.6848 47.376C78.0608 47.136 77.6288 46.728 77.3888 46.152C76.8128 44.952 76.1168 43.08 75.3008 40.536C74.5328 37.992 73.7168 35.208 72.8528 32.184C72.0368 29.112 71.2448 26.04 70.4768 22.968C69.7568 19.848 69.1568 17.136 68.6768 14.832C69.0128 14.496 69.4208 14.184 69.9008 13.896C70.4288 13.608 71.0528 13.464 71.7728 13.464C72.6848 13.464 73.3568 13.728 73.7888 14.256C74.2208 14.736 74.5568 15.528 74.7968 16.632C75.2288 18.648 75.7328 20.952 76.3088 23.544C76.8848 26.088 77.4608 28.584 78.0368 31.032C78.6128 33.48 79.1408 35.712 79.6208 37.728C80.1488 39.744 80.5328 41.232 80.7728 42.192H81.0608C81.3488 41.328 81.7568 40.032 82.2848 38.304C82.8608 36.576 83.5088 34.608 84.2288 32.4C84.9488 30.144 85.7408 27.72 86.6048 25.128L89.1968 17.352C90.0608 16.872 91.0928 16.632 92.2928 16.632C94.0688 16.632 95.1728 17.256 95.6048 18.504C96.4688 21 97.2848 23.496 98.0528 25.992C98.8688 28.44 99.6128 30.72 100.285 32.832C100.957 34.944 101.533 36.84 102.013 38.52C102.493 40.152 102.877 41.4 103.165 42.264H103.525C104.629 37.944 105.829 33.36 107.125 28.512C108.421 23.664 109.477 18.864 110.293 14.112C110.965 13.68 111.781 13.464 112.741 13.464C113.557 13.464 114.205 13.656 114.685 14.04C115.165 14.424 115.405 15.024 115.405 15.84C115.405 16.368 115.237 17.4 114.901 18.936C114.613 20.424 114.205 22.176 113.677 24.192C113.149 26.16 112.549 28.296 111.877 30.6C111.253 32.856 110.605 35.064 109.933 37.224C109.261 39.336 108.613 41.28 107.989 43.056C107.413 44.784 106.909 46.104 106.477 47.016C106.237 47.208 105.829 47.376 105.253 47.52C104.725 47.712 104.101 47.808 103.381 47.808C102.469 47.808 101.701 47.688 101.077 47.448C100.501 47.256 100.117 46.92 99.9248 46.44C99.3968 45.144 98.8208 43.608 98.1968 41.832C97.6208 40.056 96.9968 38.136 96.3248 36.072C95.6528 33.96 94.9568 31.752 94.2368 29.448C93.5648 27.144 92.8928 24.864 92.2208 22.608Z" fill="#007AFF"/>
<path fill-rule="evenodd" clip-rule="evenodd" d="M141.163 15.984C138.715 14.112 135.403 13.176 131.227 13.176C129.259 13.176 127.435 13.368 125.755 13.752C124.075 14.088 122.587 14.592 121.291 15.264C120.571 15.648 120.043 16.056 119.707 16.488C119.371 16.92 119.203 17.472 119.203 18.144C119.203 18.672 119.347 19.152 119.635 19.584C119.971 20.016 120.331 20.4 120.715 20.736C122.107 20.016 123.691 19.368 125.467 18.792C127.243 18.216 129.139 17.928 131.155 17.928C133.603 17.928 135.547 18.48 136.987 19.584C138.427 20.688 139.147 22.44 139.147 24.84V26.856L128.923 27.864C125.179 28.248 122.275 29.256 120.211 30.888C118.147 32.472 117.115 34.848 117.115 38.016C117.115 41.376 118.339 43.944 120.787 45.72C123.283 47.496 126.787 48.384 131.299 48.384C133.747 48.384 135.907 48.12 137.779 47.592C139.699 47.112 141.235 46.536 142.387 45.864C143.203 45.384 143.803 44.88 144.187 44.352C144.619 43.776 144.835 42.96 144.835 41.904V24.84C144.835 20.808 143.611 17.856 141.163 15.984ZM136.267 43.056C134.971 43.44 133.315 43.632 131.299 43.632C128.467 43.632 126.355 43.152 124.963 42.192C123.571 41.184 122.875 39.768 122.875 37.944C122.875 36.216 123.475 34.92 124.675 34.056C125.875 33.144 127.723 32.568 130.219 32.328L139.147 31.392V41.832C138.571 42.216 137.611 42.624 136.267 43.056Z" fill="#007AFF"/>
<path d="M157.508 47.232C157.268 47.328 156.908 47.424 156.428 47.52C155.948 47.664 155.42 47.736 154.844 47.736C152.78 47.736 151.748 46.872 151.748 45.144V20.736C151.748 19.632 151.94 18.768 152.324 18.144C152.756 17.472 153.452 16.824 154.412 16.2C155.66 15.384 157.34 14.688 159.452 14.112C161.612 13.488 164.036 13.176 166.724 13.176C170.564 13.176 172.484 14.136 172.484 16.056C172.484 16.536 172.412 16.992 172.268 17.424C172.124 17.808 171.932 18.144 171.692 18.432C171.212 18.336 170.588 18.24 169.82 18.144C169.052 18.048 168.284 18 167.516 18C165.308 18 163.364 18.24 161.684 18.72C160.004 19.152 158.612 19.68 157.508 20.304V47.232Z" fill="#007AFF"/>
<path d="M217.049 47.232C216.809 47.328 216.449 47.424 215.969 47.52C215.489 47.664 214.961 47.736 214.385 47.736C212.321 47.736 211.289 46.872 211.289 45.144V0.720004C211.529 0.624002 211.889 0.528002 212.368 0.432003C212.896 0.288002 213.425 0.216002 213.953 0.216002C216.017 0.216002 217.049 1.08 217.049 2.808V47.232Z" fill="#007AFF"/>
<path d="M25.5464 11.7137L20.9399 16.3567C20.6572 16.6416 20.6572 17.1035 20.9399 17.3884C21.2226 17.6733 21.6809 17.6733 21.9636 17.3884L23.1629 16.1796V42.0934C22.3908 42.5311 21.3291 42.9689 19.978 43.4066C18.6268 43.7957 16.9861 43.9903 15.0559 43.9903C12.1605 43.9903 9.89247 43.3337 8.25177 42.0204C6.61107 40.6586 5.79071 38.3969 5.79071 35.2354V16.4854C5.79071 14.6858 4.77734 13.786 2.75059 13.786C2.17152 13.786 1.61657 13.8589 1.08576 14.0049C0.6032 14.1021 0.24128 14.1994 0 14.2967V35.5272C0 40.0992 1.27878 43.4552 3.83635 45.5953C6.44217 47.7354 10.1579 48.8054 14.9835 48.8054C17.7341 48.8054 20.0745 48.5136 22.0047 47.93C23.9832 47.3463 25.5274 46.7383 26.6373 46.106C27.6507 45.5224 28.278 44.9387 28.5193 44.3551C28.8088 43.7228 28.9536 42.8959 28.9536 41.8745V16.4854C28.9536 16.3763 28.9498 16.2706 28.9421 16.1681L30.1529 17.3884C30.4355 17.6733 30.8938 17.6733 31.1765 17.3884C31.4592 17.1035 31.4592 16.6416 31.1765 16.3567L26.57 11.7137C26.2874 11.4288 25.8291 11.4288 25.5464 11.7137Z" fill="#007AFF"/>
<path fill-rule="evenodd" clip-rule="evenodd" d="M45.4363 48.2218C46.9322 48.6109 48.5247 48.8054 50.2136 48.8054C52.5782 48.8054 54.7497 48.4407 56.7282 47.7111C58.7549 46.9815 60.4921 45.8872 61.9398 44.428C63.3875 42.9202 64.4974 41.0477 65.2695 38.8103C66.0898 36.573 66.5 33.9465 66.5 30.9309C66.5 27.8181 66.0416 25.143 65.1247 22.9056C64.2561 20.6683 63.0497 18.8444 61.5055 17.4339C60.0096 15.9747 58.2 14.9047 56.0767 14.2237C54.0017 13.5428 51.7819 13.2023 49.4174 13.2023C47.1011 13.2023 45.0261 13.5185 43.1924 14.1508C41.4069 14.7344 39.8627 15.3911 38.5598 16.1206C37.4982 16.7529 36.7985 17.3609 36.4607 17.9446C36.1229 18.5282 35.954 19.3064 35.954 20.2792V58.8006C35.954 60.6002 36.9915 61.5 39.0665 61.5C39.6456 61.5 40.1764 61.427 40.6589 61.2811C41.1415 61.1839 41.5034 61.0866 41.7447 60.9893V46.8356C42.7098 47.3706 43.9403 47.8327 45.4363 48.2218ZM57.5244 40.9261C55.4976 42.9689 52.7953 43.9903 49.4174 43.9903C47.7284 43.9903 46.2566 43.7714 45.002 43.3337C43.7473 42.8959 42.6616 42.3366 41.7447 41.6556V20.1333C42.7098 19.5982 43.7956 19.1119 45.002 18.6741C46.2084 18.2364 47.6802 18.0175 49.4174 18.0175C50.9133 18.0175 52.3369 18.2364 53.688 18.6741C55.0392 19.1119 56.2215 19.8414 57.2349 20.8628C58.2965 21.8842 59.1168 23.2218 59.6959 24.8755C60.3232 26.5292 60.6369 28.5477 60.6369 30.9309C60.6369 35.5029 59.5994 38.8346 57.5244 40.9261Z" fill="#007AFF"/>
</svg>
